<svg xmlns="http://www.w3.org/2000/svg" version="1.1" xmlns:xlink="http://www.w3.org/1999/xlink" width="1000" height="1000"><g clip-path="url(#SvgjsClipPath1059)"><rect width="1000" height="1000" fill="#ffffff"></rect><g transform="matrix(2.7210884353741496,0,0,2.7210884353741496,100,101.3605442176871)"><svg xmlns="http://www.w3.org/2000/svg" version="1.1" xmlns:xlink="http://www.w3.org/1999/xlink" width="294" height="293"><svg width="294" height="293" viewBox="0 0 294 293" fill="none" xmlns="http://www.w3.org/2000/svg">
<path d="M152.671 245V269.816H162.511V278.6H131.503V269.816H141.343V245H152.671Z" fill="black"></path>
<path d="M120.231 240.785L119.116 245.305L119.563 246.701L117.45 255.276C117.143 256.519 117.298 257.562 117.914 258.406C118.499 259.243 119.646 259.871 121.355 260.292C122.504 260.576 123.715 260.677 124.988 260.595C126.253 260.544 127.381 260.311 128.373 259.897L130.017 267.668C128.296 268.232 126.334 268.507 124.129 268.491C121.925 268.475 119.829 268.222 117.84 267.732C113.459 266.652 110.314 264.838 108.404 262.291C106.463 259.737 106.017 256.331 107.066 252.074L110.443 238.372L120.231 240.785ZM127.569 242.099C129.651 242.612 131.303 243.398 132.525 244.458C133.747 245.517 134.57 246.725 134.993 248.082C135.409 249.469 135.437 250.894 135.077 252.354C134.671 254.001 133.907 255.295 132.785 256.238C131.663 257.181 130.175 257.737 128.32 257.906C126.435 258.068 124.172 257.823 121.531 257.172L116.218 255.862L117.47 250.782L121.105 251.678C122.223 251.954 123.093 251.971 123.713 251.728C124.294 251.509 124.673 251.042 124.849 250.327C124.995 249.737 124.9 249.186 124.564 248.675C124.19 248.187 123.615 247.848 122.838 247.656C122.123 247.48 121.425 247.506 120.743 247.733C120.022 247.984 119.418 248.494 118.931 249.264L118.35 245.808C119.221 244.013 120.424 242.81 121.958 242.199C123.493 241.589 125.363 241.555 127.569 242.099Z" fill="black"></path>
<path d="M102.515 233.225C104.498 234.266 106.342 235.505 108.045 236.941C109.749 238.377 111.017 239.748 111.851 241.052L105.892 246.002C105.129 244.77 104.121 243.591 102.87 242.464C101.59 241.323 100.255 240.387 98.867 239.659C97.7053 239.049 96.874 238.739 96.3732 238.729C95.8441 238.705 95.4903 238.862 95.3119 239.202C95.1334 239.542 95.2479 239.91 95.6552 240.304C96.0477 240.727 96.6183 241.189 97.367 241.69C98.1158 242.192 98.9421 242.752 99.846 243.371C100.707 244.003 101.552 244.7 102.381 245.46C103.211 246.221 103.888 247.065 104.414 247.991C104.94 248.917 105.22 249.932 105.256 251.035C105.277 252.166 104.938 253.398 104.239 254.729C103.465 256.203 102.327 257.304 100.824 258.033C99.2929 258.747 97.463 258.997 95.3345 258.784C93.1628 258.584 90.7735 257.799 88.1667 256.431C86.4667 255.539 84.8484 254.491 83.3119 253.287C81.7754 252.083 80.569 250.835 79.6926 249.544L85.6514 244.595C86.4995 245.871 87.4448 246.927 88.4876 247.764C89.4871 248.613 90.4828 249.299 91.4745 249.819C92.6929 250.459 93.5882 250.784 94.1605 250.795C94.7045 250.792 95.0509 250.648 95.1996 250.365C95.378 250.025 95.271 249.643 94.8786 249.22C94.4861 248.798 93.9155 248.336 93.1668 247.834C92.418 247.333 91.6133 246.766 90.7526 246.133C89.8487 245.514 89.0036 244.818 88.2173 244.044C87.3877 243.283 86.7101 242.44 86.1844 241.513C85.6587 240.587 85.3856 239.558 85.3649 238.427C85.3293 237.324 85.661 236.107 86.36 234.775C87.0886 233.387 88.2119 232.314 89.7297 231.556C91.2327 230.827 93.07 230.563 95.2418 230.763C97.3986 230.992 99.8229 231.812 102.515 233.225Z" fill="black"></path>
<path d="M83.0188 226.441L74.3724 235.839L61.5024 236.685L51.9095 228.187L69.231 226.731L76.1875 227.058L83.0188 226.441ZM92.6739 229.223L69.0562 255.882L60.9363 248.689L84.5541 222.03L92.6739 229.223ZM78.4822 216.65L77.8238 228.251L67.3868 229.971L68.6737 207.961L78.4822 216.65Z" fill="black"></path>
<path d="M67.2747 202.58C68.5471 204.423 69.6039 206.377 70.445 208.44C71.2861 210.504 71.7723 212.307 71.9038 213.849L64.3272 215.462C64.224 214.017 63.88 212.505 63.2953 210.926C62.6924 209.32 61.9456 207.872 61.0548 206.581C60.3095 205.502 59.7175 204.841 59.2786 204.599C58.8216 204.332 58.4351 204.307 58.1191 204.525C57.803 204.743 57.7337 205.121 57.9111 205.66C58.0621 206.217 58.3526 206.891 58.7825 207.683C59.2125 208.475 59.6839 209.355 60.1966 210.323C60.6648 211.283 61.0894 212.293 61.4704 213.352C61.8515 214.411 62.0595 215.472 62.0944 216.537C62.1294 217.602 61.9063 218.631 61.4253 219.624C60.9179 220.635 60.0453 221.568 58.8076 222.422C57.4381 223.367 55.9186 223.813 54.249 223.76C52.5612 223.681 50.8246 223.052 49.0392 221.874C47.2092 220.688 45.4581 218.883 43.7857 216.46C42.695 214.88 41.7491 213.2 40.9482 211.42C40.1472 209.64 39.6587 207.974 39.4827 206.424L47.0593 204.81C47.2171 206.334 47.5632 207.709 48.0979 208.934C48.588 210.151 49.1511 211.221 49.7874 212.142C50.569 213.275 51.2106 213.979 51.7121 214.255C52.1955 214.504 52.5689 214.538 52.8322 214.357C53.1482 214.138 53.2307 213.751 53.0797 213.194C52.9287 212.637 52.6382 211.963 52.2082 211.171C51.7783 210.379 51.3292 209.503 50.861 208.543C50.3483 207.575 49.9236 206.566 49.5871 205.515C49.2061 204.456 48.9981 203.394 48.9631 202.33C48.9282 201.265 49.1644 200.227 49.6718 199.216C50.1528 198.223 51.0122 197.299 52.25 196.445C53.5404 195.554 55.0336 195.126 56.7296 195.161C58.3992 195.214 60.149 195.833 61.9789 197.02C63.7825 198.225 65.5478 200.078 67.2747 202.58Z" fill="black"></path>
<path d="M21.9308 187.726L17.9138 177.134L49.3303 165.219L53.3473 175.811L21.9308 187.726ZM57.0579 185.595L61.0749 196.187L29.6583 208.102L25.6413 197.51L57.0579 185.595ZM41.4957 179.485L45.751 190.705L37.0441 194.007L32.7889 182.787L41.4957 179.485Z" fill="black"></path>
<path d="M50.6165 161.565C50.8672 163.63 50.6818 165.554 50.0603 167.338C49.4032 169.094 48.243 170.557 46.5798 171.726C44.8848 172.898 42.6237 173.657 39.7965 174L25.4061 175.747L24.0986 164.978L36.6305 163.457C38.473 163.233 39.7229 162.775 40.3802 162.083C41.0376 161.39 41.3026 160.52 41.1753 159.472C41.0982 158.836 40.868 158.268 40.4848 157.766C40.0659 157.237 39.4541 156.844 38.6492 156.587C37.8126 156.334 36.759 156.285 35.4883 156.439L23.2423 157.926L21.9347 147.157L47.9993 143.992L49.2432 154.237L41.7145 155.151L43.5147 152.853C45.6596 153.528 47.3286 154.663 48.5216 156.259C49.6791 157.827 50.3773 159.595 50.6165 161.565Z" fill="black"></path>
<path d="M50.5803 131.562C50.291 133.945 49.5812 135.809 48.4507 137.155C47.3203 138.5 45.7139 139.385 43.6316 139.809C41.5532 140.201 38.9574 140.208 35.8443 139.83C32.7629 139.456 30.2799 138.8 28.3952 137.862C26.4787 136.92 25.1327 135.661 24.3572 134.084C23.5537 132.471 23.2889 130.537 23.5627 128.282C23.8404 125.995 24.6351 123.964 25.9466 122.189C27.2581 120.414 28.9998 119.078 31.1717 118.181C33.3118 117.281 35.7797 117 38.5751 117.34C41.3706 117.679 43.7154 118.544 45.6096 119.935C47.4721 121.321 48.8435 123.035 49.7239 125.076C50.5726 127.113 50.858 129.275 50.5803 131.562ZM47.992 148.897L12.6357 144.604L13.9433 133.835L26.7135 135.385L36.1856 137.019L45.7098 138.224L49.2359 138.652L47.992 148.897ZM41.8815 133.117C41.9779 132.323 41.8741 131.585 41.57 130.904C41.266 130.222 40.7559 129.644 40.0398 129.17C39.2919 128.693 38.362 128.387 37.2502 128.252C36.1066 128.113 35.1463 128.189 34.3694 128.482C33.5607 128.771 32.9272 129.209 32.4689 129.798C32.0105 130.388 31.7331 131.079 31.6367 131.873C31.5403 132.667 31.6441 133.405 31.9481 134.087C32.2522 134.769 32.7623 135.346 33.4784 135.82C34.1628 136.29 35.0767 136.594 36.2203 136.733C37.3322 136.868 38.3083 136.793 39.1488 136.509C39.9574 136.22 40.591 135.781 41.0493 135.192C41.5076 134.603 41.785 133.911 41.8815 133.117Z" fill="black"></path>
<path d="M63.1479 95.3854L42.7247 81.2883L37.135 89.3864L29.9059 84.3965L47.5204 58.8775L54.7495 63.8673L49.1598 71.9655L69.5829 86.0626L63.1479 95.3854Z" fill="black"></path>
<path d="M84.6385 70.7266L81.551 67.2416L80.1485 66.8167L74.2918 60.2059C73.443 59.2478 72.4964 58.7825 71.452 58.81C70.4315 58.8163 69.2626 59.4029 67.9452 60.57C67.059 61.3552 66.2881 62.2946 65.6325 63.3884C64.9558 64.4583 64.5062 65.5192 64.2839 66.5711L56.9544 63.5095C57.4675 61.7724 58.3567 60.0014 59.622 58.1964C60.8873 56.3914 62.2864 54.8099 63.8194 53.4518C67.1966 50.4598 70.4759 48.9013 73.6571 48.7764C76.8622 48.6303 79.9183 50.1979 82.8255 53.4794L92.1835 64.0424L84.6385 70.7266ZM79.3878 76.0196C77.783 77.4413 76.1977 78.3542 74.6318 78.7582C73.0658 79.1621 71.6043 79.1531 70.247 78.7309C68.8685 78.2849 67.6806 77.4989 66.6833 76.3732C65.5586 75.1037 64.9271 73.7394 64.7887 72.2802C64.6502 70.821 65.0381 69.2804 65.9523 67.6582C66.8905 66.0147 68.3775 64.2912 70.4135 62.4875L74.5093 58.8589L77.9788 62.7751L75.1764 65.2578C74.3141 66.0218 73.8067 66.7278 73.6541 67.376C73.5043 67.979 73.6734 68.5559 74.1615 69.1068C74.5646 69.5619 75.0718 69.7966 75.683 69.8109C76.2969 69.78 76.9033 69.4993 77.5021 68.9689C78.053 68.4808 78.4287 67.8915 78.6292 67.2009C78.8323 66.4651 78.7553 65.6783 78.3979 64.8406L81.5724 66.3248C82.5555 68.0617 82.8623 69.7351 82.4929 71.3449C82.1235 72.9547 81.0885 74.5129 79.3878 76.0196Z" fill="black"></path>
<path d="M100.924 60.441C98.9403 61.482 96.8737 62.2956 94.7239 62.8818C92.5741 63.4681 90.7257 63.7334 89.1787 63.678L88.4901 55.9622C89.9372 56.0339 91.4799 55.8747 93.1183 55.4847C94.7851 55.0797 96.3126 54.5129 97.701 53.7842C98.8627 53.1745 99.5899 52.6664 99.8825 52.2598C100.203 51.8384 100.275 51.4577 100.096 51.1177C99.9177 50.7777 99.5505 50.6632 98.9944 50.7744C98.4235 50.8572 97.7191 51.0643 96.8811 51.3957C96.0431 51.7271 95.1127 52.0889 94.0898 52.4812C93.0804 52.8302 92.0271 53.1301 90.9299 53.3807C89.8327 53.6313 88.7535 53.7098 87.6925 53.6162C86.6314 53.5225 85.637 53.1771 84.7092 52.5799C83.7665 51.9543 82.9457 50.9757 82.2467 49.6439C81.4734 48.1705 81.2137 46.6083 81.4675 44.9572C81.7496 43.2913 82.5831 41.6432 83.9681 40.0128C85.3665 38.3392 87.3691 36.8183 89.9759 35.4502C91.676 34.5579 93.4578 33.8215 95.3215 33.2409C97.1852 32.6603 98.8972 32.3762 100.458 32.3884L101.146 40.1042C99.6141 40.0771 98.2077 40.255 96.927 40.6381C95.6598 40.9779 94.5304 41.4081 93.5386 41.9286C92.3203 42.568 91.5439 43.1201 91.2095 43.5847C90.9034 44.0344 90.8248 44.401 90.9735 44.6843C91.1519 45.0243 91.5266 45.1529 92.0975 45.0701C92.6684 44.9873 93.3729 44.7802 94.2109 44.4489C95.0489 44.1175 95.9725 43.7772 96.9819 43.4282C98.0048 43.0359 99.0581 42.736 100.142 42.5286C101.239 42.278 102.318 42.1995 103.379 42.2932C104.44 42.3868 105.442 42.7464 106.385 43.372C107.313 43.9692 108.126 44.9337 108.825 46.2654C109.554 47.6538 109.799 49.1877 109.56 50.8671C109.306 52.5181 108.48 54.1805 107.081 55.854C105.668 57.4993 103.616 59.0283 100.924 60.441Z" fill="black"></path>
<path d="M117.582 48.2501L114.759 35.7957L121.374 24.723L133.817 21.656L125.175 36.7383L120.954 42.2774L117.582 48.2501ZM109.807 54.6157L101.284 20.0346L111.817 17.4385L120.34 52.0196L109.807 54.6157ZM128.216 50.0782L119.043 42.9463L123.557 33.3801L140.939 46.9422L128.216 50.0782Z" fill="black"></path>
<path d="M146.102 48.48C143.862 48.48 141.654 48.24 139.478 47.76C137.302 47.28 135.542 46.656 134.198 45.888L137.174 38.736C138.422 39.472 139.862 40.048 141.494 40.464C143.158 40.88 144.774 41.088 146.342 41.088C147.654 41.088 148.534 40.976 148.982 40.752C149.462 40.528 149.702 40.224 149.702 39.84C149.702 39.456 149.43 39.184 148.886 39.024C148.342 38.832 147.622 38.688 146.726 38.592C145.83 38.496 144.838 38.384 143.75 38.256C142.694 38.096 141.622 37.872 140.534 37.584C139.446 37.296 138.454 36.864 137.558 36.288C136.662 35.712 135.942 34.944 135.398 33.984C134.854 32.992 134.582 31.744 134.582 30.24C134.582 28.576 135.078 27.072 136.07 25.728C137.094 24.384 138.598 23.312 140.582 22.512C142.598 21.68 145.078 21.264 148.022 21.264C149.942 21.264 151.862 21.44 153.782 21.792C155.702 22.144 157.35 22.688 158.726 23.424L155.75 30.576C154.406 29.84 153.078 29.344 151.766 29.088C150.486 28.8 149.286 28.656 148.166 28.656C146.79 28.656 145.846 28.784 145.334 29.04C144.854 29.296 144.614 29.584 144.614 29.904C144.614 30.288 144.886 30.576 145.43 30.768C145.974 30.96 146.694 31.104 147.59 31.2C148.486 31.296 149.462 31.424 150.518 31.584C151.606 31.712 152.678 31.936 153.734 32.256C154.822 32.544 155.814 32.976 156.71 33.552C157.606 34.128 158.326 34.912 158.87 35.904C159.414 36.864 159.686 38.096 159.686 39.6C159.686 41.168 159.19 42.64 158.198 44.016C157.206 45.36 155.702 46.448 153.686 47.28C151.67 48.08 149.142 48.48 146.102 48.48Z" fill="black"></path>
<path d="M184.146 19.9683L195.144 22.6793L187.103 55.303L176.105 52.592L184.146 19.9683ZM165.945 50.0878L154.946 47.3768L162.987 14.7532L173.986 17.4641L165.945 50.0878ZM179.814 40.7516L168.163 37.8798L170.391 28.8384L182.043 31.7102L179.814 40.7516Z" fill="black"></path>
<path d="M189.38 58.4371C187.539 57.4704 186.06 56.2247 184.945 54.6998C183.873 53.1615 183.329 51.3759 183.311 49.343C183.309 47.2818 183.97 44.9903 185.293 42.4685L192.03 29.633L201.635 34.6743L195.768 45.8523C194.906 47.4957 194.573 48.7845 194.769 49.7188C194.965 50.653 195.531 51.3655 196.466 51.8562C197.033 52.1537 197.631 52.2871 198.262 52.2566C198.935 52.2126 199.607 51.9324 200.275 51.4159C200.959 50.8711 201.598 50.032 202.193 48.8987L207.925 37.9757L217.531 43.017L205.329 66.2655L196.191 61.4696L199.716 54.7543L200.584 57.541C198.811 58.9232 196.928 59.6519 194.937 59.7273C192.989 59.7891 191.137 59.3591 189.38 58.4371Z" fill="black"></path>
<path d="M214.092 75.4508C212.296 73.8593 211.165 72.2162 210.7 70.5215C210.235 68.8269 210.419 67.0022 211.253 65.0476C212.111 63.1142 213.579 60.9738 215.659 58.6265C217.717 56.3031 219.668 54.6323 221.51 53.6141C223.374 52.572 225.175 52.1797 226.914 52.4372C228.697 52.692 230.439 53.5727 232.14 55.0794C233.865 56.6072 235.085 58.4149 235.8 60.5025C236.516 62.59 236.626 64.7823 236.13 67.0791C235.656 69.352 234.485 71.5424 232.617 73.6502C230.75 75.758 228.706 77.1964 226.486 77.9655C224.287 78.7106 222.097 78.8657 219.917 78.4308C217.759 77.972 215.817 76.9787 214.092 75.4508ZM201.297 63.4736L224.915 36.8147L233.034 44.0082L224.504 53.6371L217.779 60.5045L211.377 67.6583L209.021 70.3171L201.297 63.4736ZM217.754 67.4086C218.353 67.9391 219.019 68.2728 219.753 68.4098C220.487 68.5468 221.252 68.4551 222.049 68.1349C222.867 67.7908 223.647 67.1995 224.39 66.3612C225.154 65.4989 225.636 64.665 225.836 63.8594C226.058 63.0299 226.057 62.2593 225.833 61.5474C225.608 60.8356 225.197 60.2145 224.598 59.684C223.999 59.1535 223.333 58.8197 222.599 58.6828C221.865 58.5458 221.1 58.6374 220.303 58.9576C219.528 59.2539 218.758 59.8332 217.994 60.6954C217.252 61.5338 216.759 62.3797 216.516 63.2331C216.294 64.0626 216.295 64.8333 216.52 65.5451C216.744 66.2569 217.156 66.8781 217.754 67.4086Z" fill="black"></path>
<path d="M236.727 106.345L259.93 97.5448L256.441 88.3443L264.654 85.2294L275.649 114.222L267.436 117.337L263.947 108.137L240.744 116.937L236.727 106.345Z" fill="black"></path>
<path d="M244.812 138.039L249.434 137.478L250.58 136.565L259.348 135.5C260.618 135.346 261.539 134.831 262.11 133.956C262.684 133.113 262.866 131.817 262.653 130.07C262.511 128.895 262.175 127.727 261.648 126.566C261.152 125.401 260.534 124.429 259.794 123.648L266.478 119.355C267.616 120.764 268.568 122.502 269.335 124.569C270.102 126.635 270.608 128.685 270.855 130.718C271.399 135.197 270.819 138.782 269.115 141.471C267.414 144.191 264.388 145.816 260.036 146.344L246.027 148.045L244.812 138.039ZM243.439 130.711C243.18 128.583 243.329 126.759 243.886 125.241C244.444 123.723 245.281 122.525 246.4 121.648C247.55 120.767 248.872 120.236 250.365 120.055C252.048 119.85 253.53 120.105 254.809 120.82C256.089 121.535 257.136 122.73 257.952 124.404C258.772 126.109 259.345 128.312 259.673 131.012L260.333 136.444L255.139 137.075L254.688 133.358C254.549 132.215 254.256 131.396 253.809 130.902C253.398 130.437 252.827 130.248 252.097 130.337C251.493 130.41 251.012 130.694 250.653 131.189C250.329 131.712 250.216 132.37 250.312 133.164C250.401 133.895 250.673 134.539 251.127 135.096C251.617 135.681 252.309 136.065 253.201 136.247L250.176 138.016C248.188 137.838 246.637 137.14 245.522 135.922C244.407 134.703 243.712 132.966 243.439 130.711Z" fill="black"></path>
<path d="M244.026 157.284C244.296 155.061 244.8 152.898 245.539 150.795C246.278 148.693 247.11 147.021 248.034 145.78L254.775 149.596C253.894 150.746 253.149 152.106 252.539 153.676C251.926 155.278 251.524 156.857 251.335 158.414C251.177 159.716 251.182 160.603 251.351 161.075C251.515 161.578 251.788 161.853 252.169 161.899C252.55 161.946 252.853 161.709 253.078 161.188C253.334 160.671 253.563 159.973 253.767 159.096C253.97 158.218 254.201 157.246 254.459 156.182C254.745 155.153 255.097 154.116 255.514 153.07C255.931 152.025 256.479 151.092 257.159 150.272C257.839 149.452 258.688 148.83 259.707 148.406C260.757 147.985 262.029 147.866 263.522 148.047C265.174 148.247 266.607 148.921 267.821 150.068C269.032 151.246 269.915 152.869 270.47 154.935C271.053 157.036 271.167 159.548 270.812 162.471C270.581 164.377 270.175 166.262 269.594 168.125C269.013 169.989 268.274 171.559 267.378 172.836L260.637 169.02C261.529 167.775 262.182 166.516 262.594 165.244C263.034 164.008 263.322 162.835 263.457 161.723C263.623 160.357 263.609 159.404 263.417 158.865C263.221 158.358 262.964 158.085 262.646 158.046C262.265 158 261.946 158.235 261.69 158.752C261.434 159.269 261.204 159.966 261.001 160.844C260.797 161.722 260.553 162.676 260.267 163.705C260.008 164.769 259.657 165.806 259.212 166.816C258.795 167.862 258.246 168.794 257.567 169.614C256.887 170.434 256.022 171.055 254.971 171.475C253.953 171.899 252.697 172.021 251.204 171.84C249.647 171.651 248.246 170.981 247 169.83C245.785 168.683 244.886 167.059 244.303 164.958C243.752 162.86 243.66 160.302 244.026 157.284Z" fill="black"></path>
<path d="M244.596 177.919L256.449 182.671L261.805 194.404L257.26 206.387L249.756 190.708L247.596 184.087L244.596 177.919ZM243.774 167.904L277.075 180.534L273.229 190.677L239.927 178.047L243.774 167.904ZM237.051 185.632L248.131 182.134L253.44 191.283L232.404 197.885L237.051 185.632Z" fill="black"></path>
<path d="M227.868 201.101C229.141 199.258 230.592 197.577 232.223 196.059C233.855 194.54 235.368 193.446 236.763 192.777L240.959 199.289C239.644 199.898 238.352 200.756 237.083 201.862C235.795 202.995 234.706 204.207 233.815 205.498C233.07 206.577 232.662 207.365 232.592 207.861C232.504 208.383 232.618 208.754 232.934 208.972C233.25 209.19 233.628 209.121 234.069 208.764C234.536 208.425 235.063 207.914 235.651 207.232C236.239 206.549 236.895 205.796 237.618 204.973C238.35 204.195 239.143 203.44 239.998 202.708C240.853 201.976 241.772 201.405 242.755 200.995C243.738 200.585 244.78 200.429 245.879 200.526C247.004 200.642 248.186 201.127 249.423 201.982C250.793 202.927 251.749 204.19 252.291 205.769C252.816 207.376 252.844 209.222 252.375 211.31C251.915 213.441 250.848 215.719 249.176 218.142C248.085 219.722 246.849 221.202 245.469 222.582C244.089 223.962 242.705 225.009 241.317 225.724L237.122 219.212C238.491 218.524 239.654 217.713 240.61 216.778C241.574 215.888 242.374 214.983 243.01 214.061C243.792 212.929 244.223 212.079 244.303 211.512C244.365 210.972 244.264 210.611 244.001 210.429C243.685 210.211 243.294 210.271 242.826 210.61C242.359 210.948 241.832 211.459 241.244 212.142C240.656 212.825 239.996 213.555 239.265 214.333C238.541 215.156 237.748 215.911 236.885 216.598C236.03 217.33 235.111 217.901 234.128 218.311C233.145 218.721 232.09 218.869 230.965 218.753C229.866 218.655 228.697 218.179 227.46 217.325C226.169 216.434 225.239 215.19 224.671 213.592C224.128 212.012 224.087 210.156 224.547 208.024C225.034 205.911 226.141 203.603 227.868 201.101Z" fill="black"></path>
<path d="M230.059 248.766L221.58 256.278L199.299 231.128L207.778 223.616L230.059 248.766ZM215.61 216.677L224.089 209.165L246.37 234.315L237.891 241.827L215.61 216.677ZM215.415 233.395L224.397 225.437L230.572 232.407L221.59 240.365L215.415 233.395Z" fill="black"></path>
<path d="M195.426 231.221C197.268 230.254 199.133 229.745 201.021 229.694C202.896 229.686 204.675 230.252 206.358 231.392C208.056 232.561 209.566 234.407 210.89 236.928L217.626 249.764L208.021 254.805L202.154 243.627C201.292 241.984 200.42 240.978 199.54 240.609C198.66 240.239 197.752 240.3 196.817 240.791C196.25 241.088 195.8 241.505 195.467 242.041C195.121 242.621 194.97 243.332 195.015 244.176C195.076 245.048 195.403 246.05 195.998 247.184L201.731 258.107L192.125 263.148L179.924 239.9L189.061 235.104L192.586 241.819L189.799 240.951C189.669 238.706 190.139 236.743 191.208 235.061C192.263 233.423 193.669 232.143 195.426 231.221Z" fill="black"></path>
<path d="M167.386 241.894C169.716 241.319 171.711 241.322 173.37 241.902C175.029 242.482 176.426 243.67 177.561 245.467C178.664 247.271 179.592 249.695 180.342 252.74C181.085 255.754 181.352 258.308 181.143 260.403C180.942 262.529 180.242 264.234 179.042 265.519C177.82 266.842 176.105 267.775 173.899 268.319C171.662 268.87 169.481 268.848 167.357 268.251C165.232 267.654 163.365 266.499 161.757 264.786C160.156 263.104 159.018 260.896 158.344 258.162C157.671 255.428 157.648 252.929 158.276 250.665C158.912 248.432 160.028 246.542 161.625 244.995C163.228 243.479 165.149 242.445 167.386 241.894ZM184.512 238.167L193.035 272.748L182.502 275.344L179.424 262.854L177.592 253.418L175.342 244.086L174.492 240.637L184.512 238.167ZM171.924 249.476C171.148 249.667 170.494 250.026 169.965 250.552C169.435 251.078 169.076 251.76 168.887 252.598C168.706 253.466 168.749 254.444 169.017 255.532C169.293 256.65 169.705 257.521 170.254 258.144C170.811 258.797 171.446 259.234 172.159 259.454C172.872 259.673 173.617 259.688 174.394 259.496C175.171 259.305 175.824 258.946 176.353 258.42C176.883 257.894 177.242 257.212 177.431 256.375C177.628 255.568 177.588 254.606 177.313 253.487C177.045 252.4 176.629 251.513 176.064 250.829C175.508 250.175 174.873 249.738 174.159 249.518C173.446 249.299 172.701 249.285 171.924 249.476Z" fill="black"></path>
</svg></svg></g></g><defs><clipPath id="SvgjsClipPath1059"><rect width="1000" height="1000" x="0" y="0" rx="500" ry="500"></rect></clipPath></defs></svg>