<svg width="479" height="482" viewBox="0 0 479 482" fill="none" xmlns="http://www.w3.org/2000/svg">
<path d="M226.086 419.212L220.313 461.212L236.967 463.501L234.923 478.367L182.445 471.154L184.488 456.288L201.141 458.577L206.914 416.577L226.086 419.212Z" fill="black"/>
<path d="M163.983 402.335L160.814 409.631L161.168 412.109L155.157 425.948C154.286 427.953 154.248 429.755 155.044 431.352C155.79 432.928 157.542 434.315 160.3 435.513C162.155 436.319 164.166 436.834 166.333 437.06C168.478 437.336 170.445 437.267 172.234 436.852L172.782 450.411C169.722 450.87 166.338 450.771 162.63 450.114C158.922 449.457 155.463 448.431 152.254 447.037C145.185 443.967 140.405 440.013 137.916 435.177C135.378 430.32 135.6 424.456 138.584 417.587L148.188 395.475L163.983 402.335ZM175.967 406.647C179.327 408.106 181.884 409.902 183.64 412.036C185.395 414.169 186.435 416.439 186.761 418.845C187.065 421.301 186.705 423.708 185.681 426.065C184.527 428.722 182.87 430.684 180.711 431.951C178.551 433.219 175.885 433.73 172.714 433.484C169.492 433.217 165.75 432.158 161.488 430.307L152.914 426.583L156.475 418.385L162.342 420.933C164.147 421.717 165.606 421.993 166.72 421.762C167.762 421.559 168.533 420.881 169.034 419.727C169.448 418.775 169.445 417.82 169.026 416.863C168.536 415.935 167.663 415.199 166.41 414.654C165.257 414.153 164.073 413.997 162.859 414.185C161.573 414.401 160.41 415.088 159.371 416.246L159.379 410.259C161.359 407.484 163.729 405.801 166.488 405.212C169.248 404.622 172.407 405.1 175.967 406.647Z" fill="black"/>
<path d="M129.466 379.685C132.434 382.1 135.102 384.798 137.468 387.78C139.834 390.762 141.493 393.487 142.446 395.953L130.792 402.223C129.932 399.902 128.644 397.586 126.93 395.275C125.174 392.93 123.256 390.912 121.179 389.222C119.44 387.807 118.153 387.007 117.318 386.821C116.44 386.6 115.795 386.744 115.381 387.253C114.967 387.762 115.034 388.416 115.582 389.214C116.096 390.055 116.895 391.022 117.979 392.115C119.063 393.208 120.256 394.426 121.56 395.769C122.787 397.119 123.966 398.572 125.097 400.127C126.229 401.681 127.078 403.323 127.644 405.053C128.21 406.782 128.336 408.576 128.022 410.434C127.674 412.336 126.689 414.283 125.067 416.276C123.273 418.481 120.995 419.939 118.231 420.651C115.425 421.328 112.276 421.127 108.785 420.048C105.216 418.977 101.481 416.855 97.5799 413.681C95.0355 411.611 92.6809 409.307 90.5161 406.771C88.3513 404.235 86.7539 401.737 85.7239 399.278L97.3783 393.009C98.3658 395.433 99.5909 397.522 101.054 399.276C102.439 401.038 103.874 402.522 105.358 403.73C107.182 405.213 108.571 406.061 109.525 406.274C110.437 406.452 111.066 406.329 111.411 405.905C111.825 405.396 111.775 404.722 111.261 403.881C110.747 403.04 109.948 402.073 108.864 400.979C107.781 399.886 106.625 398.664 105.398 397.314C104.095 395.971 102.915 394.519 101.861 392.956C100.73 391.402 99.8809 389.76 99.3145 388.03C98.7482 386.301 98.6393 384.486 98.9879 382.585C99.302 380.726 100.27 378.8 101.891 376.807C103.582 374.729 105.826 373.313 108.624 372.559C111.388 371.848 114.554 372.028 118.122 373.098C121.656 374.212 125.437 376.407 129.466 379.685Z" fill="black"/>
<path d="M93.4202 355.033L75.364 367.276L53.6313 363.647L41.0054 345.76L70.3791 350.119L81.8189 353.386L93.4202 355.033ZM108.387 363.438L58.6791 398.526L47.9921 383.386L97.6998 348.298L108.387 363.438ZM89.7082 336.977L84.073 356.01L66.0444 354.784L76.7986 318.688L89.7082 336.977Z" fill="black"/>
<path d="M14.5753 310.231L8.09476 291.996L62.1805 272.774L68.6611 291.009L14.5753 310.231ZM74.6474 307.853L81.128 326.087L27.0422 345.31L20.5617 327.075L74.6474 307.853ZM48.2873 296.857L55.1523 316.174L40.1628 321.501L33.2978 302.185L48.2873 296.857Z" fill="black"/>
<path d="M63.2524 258.278C63.4949 261.824 63.006 265.09 61.7857 268.077C60.5072 271.014 58.3967 273.405 55.4545 275.25C52.4576 277.099 48.5322 278.189 43.6782 278.521L18.972 280.211L17.7073 261.723L39.223 260.251C42.3863 260.035 44.5597 259.365 45.7432 258.243C46.9267 257.121 47.4569 255.66 47.3338 253.861C47.2592 252.77 46.9175 251.779 46.3087 250.89C45.6416 249.949 44.6331 249.223 43.2831 248.713C41.8786 248.206 40.0856 248.028 37.904 248.177L16.8791 249.615L15.6144 231.126L60.3639 228.065L61.567 245.654L48.6412 246.538L51.9184 242.78C55.5171 244.123 58.2625 246.209 60.1547 249.038C61.9886 251.817 63.0211 254.897 63.2524 258.278Z" fill="black"/>
<path d="M67.443 197.85C66.6088 201.865 65.1331 204.936 63.0158 207.064C60.8985 209.193 58.037 210.469 54.4315 210.892C50.8371 211.262 46.4172 210.902 41.172 209.812C35.9802 208.733 31.8474 207.26 28.7737 205.393C25.6464 203.514 23.5357 201.177 22.4417 198.382C21.3052 195.521 21.1318 192.191 21.9215 188.391C22.7223 184.537 24.3662 181.194 26.8534 178.36C29.3405 175.527 32.497 173.503 36.3229 172.288C40.0953 171.062 44.3365 170.938 49.0465 171.917C53.7566 172.896 57.6241 174.705 60.6492 177.343C63.6208 179.971 65.7096 183.085 66.9155 186.686C68.068 190.275 68.2438 193.997 67.443 197.85ZM60.5507 226.988L0.97933 214.608L4.74978 196.464L26.2661 200.935L42.1563 205.075L58.1966 208.492L64.1377 209.726L60.5507 226.988ZM52.412 199.249C52.69 197.911 52.6191 196.64 52.1993 195.436C51.7795 194.233 50.994 193.176 49.8429 192.267C48.6383 191.346 47.0993 190.692 45.226 190.302C43.2992 189.902 41.6535 189.895 40.289 190.281C38.871 190.657 37.7296 191.313 36.8649 192.25C36.0002 193.187 35.4288 194.324 35.1507 195.663C34.8727 197.001 34.9435 198.272 35.3634 199.476C35.7832 200.679 36.5687 201.736 37.7198 202.645C38.8173 203.543 40.3295 204.193 42.2564 204.593C44.1297 204.982 45.8021 204.995 47.2737 204.631C48.6917 204.255 49.8331 203.599 50.6978 202.662C51.5625 201.725 52.1339 200.588 52.412 199.249Z" fill="black"/>
<path d="M103.262 124.993L72.279 96.0566L60.8053 108.342L49.8384 98.0996L85.9946 59.3858L96.9615 69.6282L85.4878 81.9135L116.471 110.85L103.262 124.993Z" fill="black"/>
<path d="M152.864 83.9889L148.731 77.1929L146.503 76.053L138.663 63.1615C137.527 61.2932 136.077 60.2236 134.313 59.9528C132.595 59.6536 130.452 60.2852 127.883 61.8474C126.155 62.8983 124.574 64.2437 123.14 65.8836C121.677 67.4767 120.599 69.1238 119.906 70.8249L108.514 63.4532C109.903 60.6886 111.936 57.9811 114.611 55.3307C117.286 52.6803 120.118 50.4461 123.107 48.6283C129.693 44.6233 135.679 42.9986 141.065 43.7541C146.498 44.4813 151.16 48.0443 155.051 54.4434L167.577 75.0417L152.864 83.9889ZM142.431 91.2935C139.301 93.1965 136.359 94.25 133.604 94.4539C130.849 94.6578 128.394 94.1989 126.24 93.0773C124.058 91.909 122.3 90.2272 120.965 88.0319C119.46 85.5563 118.812 83.071 119.022 80.5759C119.232 78.0808 120.352 75.6084 122.381 73.1587C124.457 70.6806 127.48 68.2344 131.451 65.8201L139.438 60.963L144.082 68.5998L138.617 71.9231C136.935 72.9456 135.868 73.9786 135.415 75.022C134.98 75.9902 135.089 77.0115 135.742 78.0858C136.282 78.9732 137.063 79.5217 138.087 79.7313C139.128 79.8657 140.233 79.5779 141.4 78.8678C142.475 78.2145 143.285 77.3378 143.832 76.2376C144.397 75.0623 144.506 73.7163 144.159 72.1995L149.046 75.6581C150.171 78.8766 150.179 81.7829 149.069 84.3771C147.96 86.9714 145.747 89.2768 142.431 91.2935Z" fill="black"/>
<path d="M191.274 68.8519C187.589 69.8843 183.847 70.5072 180.046 70.7205C176.245 70.9338 173.062 70.7186 170.498 70.0747L172.097 56.9381C174.489 57.5736 177.123 57.8574 179.999 57.7895C182.928 57.7069 185.683 57.3042 188.262 56.5815C190.42 55.9768 191.816 55.387 192.45 54.812C193.136 54.2223 193.391 53.6116 193.214 52.98C193.037 52.3483 192.464 52.0262 191.495 52.0138C190.512 51.9487 189.261 52.0436 187.743 52.2987C186.225 52.5537 184.542 52.8267 182.693 53.1176C180.882 53.3411 179.015 53.4667 177.093 53.4944C175.17 53.5222 173.339 53.2687 171.6 52.7342C169.861 52.1997 168.322 51.2682 166.985 49.9397C165.633 48.5586 164.61 46.631 163.917 44.157C163.15 41.4197 163.273 38.7171 164.285 36.049C165.35 33.3662 167.33 30.9095 170.225 28.6791C173.158 26.3813 177.046 24.554 181.889 23.1971C185.047 22.3121 188.286 21.7167 191.607 21.4108C194.928 21.1049 197.889 21.2402 200.492 21.8167L198.893 34.9533C196.343 34.362 193.93 34.1582 191.653 34.3418C189.415 34.458 187.375 34.7742 185.532 35.2904C183.269 35.9246 181.775 36.5703 181.051 37.2274C180.379 37.8697 180.117 38.4541 180.265 38.9805C180.442 39.6122 181.022 39.9606 182.005 40.0257C182.989 40.0908 184.239 39.9958 185.757 39.7407C187.276 39.4857 188.94 39.2464 190.751 39.0229C192.6 38.732 194.466 38.6064 196.351 38.6461C198.273 38.6184 200.104 38.8718 201.844 39.4063C203.583 39.9408 205.129 40.8987 206.481 42.2798C207.818 43.6082 208.834 45.5095 209.527 47.9835C210.249 50.5629 210.112 53.2129 209.114 55.9336C208.102 58.6017 206.129 61.0846 203.197 63.3824C200.249 65.6276 196.275 67.4507 191.274 68.8519Z" fill="black"/>
<path d="M232.37 53.62L232.78 31.808L248.278 16.146L270.172 16.146L249.672 37.63L240.406 45.092L232.37 53.62ZM216.872 61V0.155996L235.404 0.155996V61H216.872ZM249.262 61L236.962 45.42L248.36 31.398L271.648 61L249.262 61Z" fill="black"/>
<path d="M314.27 15.0426L332.905 20.2637L317.418 75.5352L298.784 70.3141L314.27 15.0426ZM281.571 65.4912L262.937 60.2701L278.423 4.99863L297.057 10.2197L281.571 65.4912ZM305.755 50.2966L286.015 44.7657L290.307 29.4477L310.047 34.9785L305.755 50.2966Z" fill="black"/>
<path d="M328.643 84.7703C325.607 82.9241 323.22 80.6411 321.483 77.9212C319.821 75.1831 319.085 72.0801 319.275 68.6124C319.492 65.0979 320.865 61.2621 323.393 57.1051L336.26 35.9462L352.094 45.5752L340.889 64.0016C339.241 66.7107 338.535 68.8722 338.769 70.4861C339.003 72.1001 339.891 73.3758 341.432 74.3131C342.366 74.8812 343.373 75.1731 344.451 75.1889C345.604 75.1864 346.778 74.7808 347.974 73.9723C349.198 73.117 350.378 71.7552 351.514 69.8869L362.463 51.8808L378.298 61.5098L354.992 99.8339L339.929 90.6736L346.66 79.6038L347.841 84.4485C344.669 86.6141 341.381 87.654 337.978 87.5682C334.651 87.464 331.539 86.5314 328.643 84.7703Z" fill="black"/>
<path d="M375.594 123.042C372.796 120.046 371.138 117.069 370.62 114.111C370.102 111.154 370.71 108.081 372.443 104.891C374.214 101.741 377.057 98.3382 380.972 94.6815C384.848 91.0621 388.434 88.5352 391.732 87.1008C395.07 85.629 398.197 85.2524 401.112 85.9708C404.104 86.6918 406.925 88.4707 409.574 91.3073C412.26 94.1839 414.044 97.4551 414.924 101.121C415.805 104.787 415.638 108.533 414.424 112.359C413.251 116.148 410.906 119.684 407.39 122.968C403.874 126.251 400.166 128.368 396.266 129.318C392.406 130.23 388.657 130.141 385.02 129.05C381.423 127.921 378.281 125.919 375.594 123.042ZM355.765 100.608L400.232 59.0791L412.881 72.6229L396.82 87.6227L384.275 98.2173L372.233 109.351L367.798 113.493L355.765 100.608ZM383.119 109.955C384.052 110.954 385.131 111.629 386.357 111.98C387.583 112.332 388.899 112.299 390.306 111.883C391.752 111.43 393.175 110.55 394.573 109.244C396.011 107.901 396.966 106.56 397.437 105.223C397.948 103.848 398.07 102.537 397.804 101.29C397.537 100.043 396.937 98.9206 396.004 97.9218C395.071 96.923 393.992 96.2479 392.766 95.8966C391.541 95.5453 390.224 95.5777 388.818 95.9938C387.451 96.3726 386.049 97.2336 384.61 98.5769C383.212 99.8828 382.237 101.242 381.686 102.654C381.175 104.029 381.053 105.34 381.32 106.587C381.587 107.834 382.187 108.956 383.119 109.955Z" fill="black"/>
<path d="M414.46 194.32L455.967 185.695L452.547 169.236L467.24 166.183L478.017 218.047L463.325 221.1L459.905 204.642L418.397 213.267L414.46 194.32Z" fill="black"/>
<path d="M419.355 258.49L427.291 259.032L429.507 257.869L444.56 258.899C446.741 259.048 448.452 258.48 449.69 257.195C450.925 255.964 451.645 253.849 451.85 250.849C451.988 248.831 451.801 246.764 451.288 244.647C450.83 242.533 450.106 240.703 449.116 239.155L461.708 234.099C463.165 236.829 464.205 240.051 464.828 243.764C465.451 247.478 465.643 251.08 465.404 254.571C464.878 262.261 462.753 268.088 459.03 272.053C455.303 276.072 449.704 277.826 442.232 277.315L418.18 275.669L419.355 258.49ZM419.404 245.753C419.654 242.099 420.49 239.088 421.913 236.719C423.335 234.351 425.125 232.61 427.284 231.498C429.496 230.389 431.884 229.922 434.448 230.097C437.338 230.295 439.742 231.199 441.659 232.81C443.577 234.42 444.951 236.761 445.782 239.832C446.609 242.957 446.864 246.837 446.547 251.473L445.909 260.799L436.992 260.189L437.429 253.808C437.563 251.845 437.335 250.377 436.744 249.405C436.203 248.491 435.306 247.992 434.052 247.906C433.015 247.835 432.117 248.157 431.355 248.872C430.645 249.645 430.243 250.714 430.15 252.077C430.064 253.332 430.313 254.499 430.896 255.58C431.531 256.72 432.568 257.585 434.007 258.177L428.363 260.174C425.085 259.238 422.706 257.568 421.226 255.166C419.747 252.763 419.139 249.626 419.404 245.753Z" fill="black"/>
<path d="M409.571 298.599C410.852 294.993 412.502 291.576 414.519 288.348C416.537 285.12 418.548 282.644 420.553 280.92L430.363 289.802C428.465 291.39 426.714 293.378 425.11 295.767C423.489 298.208 422.23 300.69 421.333 303.214C420.582 305.326 420.259 306.806 420.363 307.656C420.449 308.556 420.801 309.117 421.419 309.336C422.037 309.556 422.631 309.274 423.2 308.49C423.82 307.724 424.464 306.647 425.131 305.26C425.798 303.873 426.546 302.34 427.374 300.662C428.236 299.053 429.21 297.456 430.296 295.869C431.382 294.283 432.645 292.933 434.084 291.82C435.524 290.708 437.172 289.988 439.029 289.661C440.937 289.353 443.101 289.629 445.522 290.49C448.201 291.442 450.338 293.101 451.934 295.466C453.512 297.884 454.377 300.918 454.529 304.569C454.715 308.29 453.966 312.52 452.282 317.259C451.184 320.35 449.802 323.34 448.137 326.229C446.472 329.118 444.653 331.46 442.681 333.254L432.871 324.372C434.825 322.629 436.383 320.775 437.546 318.81C438.742 316.914 439.66 315.065 440.301 313.262C441.088 311.047 441.422 309.454 441.303 308.484C441.165 307.565 440.839 307.014 440.324 306.831C439.706 306.611 439.087 306.884 438.466 307.65C437.846 308.416 437.202 309.492 436.535 310.88C435.868 312.267 435.104 313.765 434.242 315.373C433.414 317.051 432.44 318.649 431.321 320.165C430.234 321.752 428.972 323.102 427.532 324.214C426.092 325.327 424.418 326.038 422.51 326.346C420.654 326.672 418.515 326.405 416.094 325.545C413.57 324.648 411.484 323.007 409.837 320.623C408.241 318.258 407.35 315.214 407.164 311.493C407.029 307.79 407.832 303.492 409.571 298.599Z" fill="black"/>
<path d="M398.414 340.818L415.997 353.732L419.855 375.425L407.229 393.312L401.499 364.175L400.747 352.301L398.414 340.818ZM401.322 323.901L451.03 358.988L440.342 374.129L390.635 339.041L401.322 323.901ZM382.643 350.363L402.465 349.299L407.347 366.697L369.734 368.651L382.643 350.363Z" fill="black"/>
<path d="M382.602 430.114L367.591 442.326L331.366 397.801L346.378 385.588L382.602 430.114ZM360.244 374.306L375.256 362.094L411.48 406.619L396.469 418.832L360.244 374.306ZM358.711 402.827L374.613 389.889L384.653 402.229L368.751 415.167L358.711 402.827Z" fill="black"/>
<path d="M317.348 401.645C320.608 400.229 323.849 399.596 327.073 399.746C330.268 399.967 333.228 401.155 335.952 403.309C338.697 405.514 341.039 408.848 342.978 413.31L352.844 436.024L335.846 443.407L327.254 423.626C325.991 420.718 324.632 418.895 323.179 418.155C321.725 417.416 320.171 417.405 318.516 418.124C317.514 418.56 316.695 419.213 316.06 420.085C315.397 421.028 315.051 422.222 315.023 423.665C315.015 425.158 315.448 426.907 316.319 428.913L324.715 448.242L307.717 455.625L289.847 414.485L306.017 407.461L311.179 419.344L306.54 417.515C306.6 413.674 307.647 410.389 309.679 407.658C311.683 405 314.24 402.995 317.348 401.645Z" fill="black"/>
<path d="M259.006 417.932C263.068 417.374 266.456 417.736 269.17 419.018C271.885 420.301 274.045 422.57 275.652 425.825C277.204 429.088 278.345 433.374 279.074 438.681C279.796 443.934 279.792 448.322 279.062 451.843C278.34 455.419 276.844 458.19 274.577 460.157C272.262 462.186 269.182 463.465 265.337 463.993C261.437 464.529 257.737 464.1 254.234 462.705C250.731 461.31 247.767 459.014 245.341 455.816C242.922 452.672 241.386 448.717 240.731 443.951C240.075 439.185 240.485 434.935 241.958 431.201C243.439 427.521 245.673 424.51 248.662 422.168C251.659 419.88 255.107 418.468 259.006 417.932ZM288.769 414.669L297.054 474.946L278.694 477.47L275.702 455.699L274.281 439.34L272.129 423.081L271.303 417.07L288.769 414.669ZM265.358 431.627C264.004 431.813 262.83 432.305 261.836 433.104C260.842 433.903 260.11 434.997 259.639 436.386C259.175 437.829 259.073 439.499 259.334 441.394C259.602 443.344 260.146 444.897 260.967 446.053C261.796 447.264 262.796 448.119 263.969 448.62C265.141 449.121 266.404 449.279 267.758 449.093C269.112 448.907 270.286 448.414 271.28 447.615C272.274 446.817 273.006 445.723 273.478 444.334C273.956 442.999 274.062 441.356 273.794 439.407C273.533 437.511 272.985 435.931 272.149 434.667C271.32 433.456 270.32 432.6 269.147 432.099C267.975 431.598 266.712 431.441 265.358 431.627Z" fill="black"/>
</svg>
